<?xml version="1.0" encoding="UTF-8" standalone="no"?>
<!-- Created with Inkscape (http://www.inkscape.org/) -->

<svg
   width="1496"
   height="256"
   viewBox="0 0 395.81597 67.73333"
   version="1.1"
   id="svg1"
   xml:space="preserve"
   inkscape:version="1.4.2 (f4327f4, 2025-05-13)"
   sodipodi:docname="logo_h_int.svg"
   xmlns:inkscape="http://www.inkscape.org/namespaces/inkscape"
   xmlns:sodipodi="http://sodipodi.sourceforge.net/DTD/sodipodi-0.dtd"
   xmlns="http://www.w3.org/2000/svg"
   xmlns:svg="http://www.w3.org/2000/svg"><sodipodi:namedview
     id="namedview1"
     pagecolor="#505050"
     bordercolor="#ffffff"
     borderopacity="1"
     inkscape:showpageshadow="0"
     inkscape:pageopacity="0"
     inkscape:pagecheckerboard="1"
     inkscape:deskcolor="#505050"
     inkscape:document-units="px"
     inkscape:zoom="0.70822811"
     inkscape:cx="655.15615"
     inkscape:cy="366.40737"
     inkscape:window-width="1920"
     inkscape:window-height="991"
     inkscape:window-x="2391"
     inkscape:window-y="-9"
     inkscape:window-maximized="1"
     inkscape:current-layer="layer2"
     showgrid="false" /><defs
     id="defs1" /><g
     inkscape:groupmode="layer"
     id="layer2"
     inkscape:label="Text"
     transform="matrix(1.1093552,0,0,1.1093552,144.84787,-97.342799)"><text
       xml:space="preserve"
       style="font-weight:bold;font-size:37.2412px;line-height:0.1;font-family:'Source Sans Pro';-inkscape-font-specification:'Source Sans Pro Bold';text-align:center;writing-mode:lr-tb;direction:ltr;text-anchor:middle;display:none;fill:#153d60;fill-opacity:1;stroke-width:0.263914;stroke-linecap:round;stroke-opacity:0.345161"
       x="98.050995"
       y="127.70827"
       id="text1"
       transform="scale(1.0556576,0.94727685)"
       inkscape:label="DE_Brückner"><tspan
         sodipodi:role="line"
         id="tspan1"
         style="font-size:37.2412px;fill:#153d60;fill-opacity:1;stroke-width:0.263914"
         x="98.050995"
         y="127.70827">BRÜCKNER</tspan></text><text
       xml:space="preserve"
       style="font-weight:bold;font-size:37.2412px;line-height:0.1;font-family:'Source Sans Pro';-inkscape-font-specification:'Source Sans Pro Bold';text-align:center;writing-mode:lr-tb;direction:ltr;text-anchor:middle;display:inline;fill:#153d60;fill-opacity:1;stroke-width:0.263914;stroke-linecap:round;stroke-opacity:0.345161"
       x="98.050995"
       y="127.70827"
       id="text2"
       transform="scale(1.0556576,0.94727685)"
       inkscape:label="INT_Bruckner"><tspan
         sodipodi:role="line"
         id="tspan2"
         style="font-size:37.2412px;fill:#153d60;fill-opacity:1;stroke-width:0.263914"
         x="98.050995"
         y="127.70827">BRUCKNER</tspan></text><text
       xml:space="preserve"
       style="font-style:normal;font-variant:normal;font-weight:600;font-stretch:normal;font-size:26.6256px;line-height:0.1;font-family:'Source Sans Pro';-inkscape-font-specification:'Source Sans Pro Semi-Bold';text-align:center;writing-mode:lr-tb;direction:ltr;text-anchor:middle;fill:#1caca4;fill-opacity:1;stroke-width:0.285888;stroke-linecap:round;stroke-opacity:0.345161"
       x="89.887001"
       y="169.59215"
       id="text3"
       transform="scale(1.1435522,0.87446817)"
       inkscape:label="Codecraft"><tspan
         sodipodi:role="line"
         id="tspan3"
         style="font-style:normal;font-variant:normal;font-weight:600;font-stretch:normal;font-size:26.6256px;font-family:'Source Sans Pro';-inkscape-font-specification:'Source Sans Pro Semi-Bold';fill:#1caca4;fill-opacity:1;stroke-width:0.285888"
         x="89.887001"
         y="169.59215">CODECRAFT</tspan></text></g><g
     inkscape:groupmode="layer"
     id="layer3"
     inkscape:label="Chain"
     style="display:inline"
     transform="matrix(0.94129718,0,0,0.94129718,-33.721252,-7.296305)"><path
       id="path3"
       style="display:inline;fill:#163c5f;fill-opacity:1;stroke:#152147;stroke-width:0.25;stroke-linecap:round;stroke-opacity:0.35"
       inkscape:label="Left"
       d="m 78.739501,10.132837 c -9.4471,0.237744 -14.621847,7.126181 -14.621847,7.126181 L 53.541039,30.685072 c 0,0 -15.46996,-1.501589 -15.342354,12.757724 0.136387,15.240432 15.242618,13.384349 15.242618,13.384349 l 11.215336,13.738696 c 0,0 5.598899,6.732736 14.76034,6.769096 9.161441,0.03636 14.330908,-6.174817 14.330908,-6.174817 L 112.83355,51.645033 c 0,0 3.59526,-3.08542 3.59926,-7.957654 0.004,-4.872233 -2.69286,-7.433655 -2.69286,-7.433655 L 92.585684,15.141318 c 0,0 -4.399083,-5.2462238 -13.846183,-5.008481 z m 0.653707,11.327475 c 3.596658,-0.09503 6.020821,2.261877 6.020821,2.261877 L 102.8109,41.01209 c 0,0 1.5424,1.073379 1.65158,2.657719 0.10917,1.584339 -1.70687,2.891813 -1.70687,2.891813 L 84.888479,63.960043 c 0,0 -2.12095,2.031272 -5.446696,2.024166 -3.325746,-0.0071 -5.758304,-2.370915 -5.758304,-2.370915 L 61.684728,50.060116 c 0,0 1.954893,-3.302827 1.848983,-6.339664 -0.10591,-3.036836 -1.749764,-6.307109 -1.749764,-6.307109 L 73.671076,23.907708 c 0,0 2.125474,-2.352364 5.722132,-2.447396 z M 50.77945,39.245789 c 2.412044,-1.18e-4 4.367393,2.01076 4.367176,4.491199 -6.1e-5,2.480237 -1.955328,4.4908 -4.367176,4.490682 -2.411646,-1.76e-4 -4.366597,-2.010653 -4.366658,-4.490682 -2.17e-4,-2.480231 1.954816,-4.491023 4.366658,-4.491199 z"
       sodipodi:nodetypes="sccsccsccsccssccsccsccsccsccccc" /><path
       id="path4"
       style="display:inline;fill:#1fb0a8;fill-opacity:1;stroke:#309a93;stroke-width:0.25;stroke-linecap:round;stroke-opacity:0.35"
       inkscape:label="Right"
       d="m 127.42129,10.132838 c -9.44716,-0.2377434 -13.8467,5.00848 -13.8467,5.00848 l -10.43554,10.414868 7.84035,7.872904 9.76684,-9.706901 c 0,0 2.42466,-2.356907 6.02134,-2.261877 3.59667,0.09503 5.72213,2.447396 5.72213,2.447396 l 11.88713,13.505635 c 0,0 -1.64385,3.270273 -1.74976,6.307109 -0.10591,3.036837 1.84898,6.339664 1.84898,6.339664 l -11.99875,13.553178 c 0,0 -2.43255,2.363815 -5.75831,2.370915 -3.32576,0.0071 -5.44721,-2.024166 -5.44721,-2.024166 L 103.40466,46.561622 c 0,0 -1.81604,-1.307474 -1.70687,-2.891813 0.0761,-1.104653 0.84898,-1.960917 1.31,-2.37815 l -7.842418,-7.777303 -2.745053,2.739368 c 0,0 -2.696858,2.561422 -2.692858,7.433655 0.004,4.872234 3.599263,7.957654 3.599263,7.957654 L 112.41238,71.16012 c 0,0 5.16994,6.211177 14.33143,6.174817 9.1615,-0.03636 14.76034,-6.769096 14.76034,-6.769096 l 11.21533,-13.738696 c 0,0 15.1061,1.856236 15.24248,-13.384196 0.12761,-14.259313 -15.34221,-12.757877 -15.34221,-12.757877 L 142.04313,17.259018 c 0,0 -5.17469,-6.888437 -14.62184,-7.12618 z m 27.96005,29.112951 c 2.41184,1.76e-4 4.36686,2.010968 4.36665,4.491199 -6e-5,2.480029 -1.955,4.490506 -4.36665,4.490682 -2.41185,1.18e-4 -4.36712,-2.010445 -4.36718,-4.490682 -2.1e-4,-2.480439 1.95514,-4.491317 4.36718,-4.491199 z" /></g></svg>
