<?xml version="1.0" encoding="UTF-8" standalone="no"?>
<!-- Generator: Adobe Illustrator 16.0.0, SVG Export Plug-In . SVG Version: 6.00 Build 0)  -->

<svg
   version="1.1"
   id="Base"
   sodipodi:docname="logo_h_int.svg"
   inkscape:version="1.4.2 (f4327f4, 2025-05-13)"
   x="0px"
   y="0px"
   width="1438px"
   height="256px"
   viewBox="29 0 1438 256"
   enable-background="new 29 0 1438 256"
   xml:space="preserve"
   xmlns:inkscape="http://www.inkscape.org/namespaces/inkscape"
   xmlns:sodipodi="http://sodipodi.sourceforge.net/DTD/sodipodi-0.dtd"
   xmlns="http://www.w3.org/2000/svg"
   xmlns:svg="http://www.w3.org/2000/svg"><defs
   id="defs1" /><sodipodi:namedview
   id="namedview1"
   pagecolor="#505050"
   bordercolor="#ffffff"
   borderopacity="1"
   inkscape:showpageshadow="0"
   inkscape:pageopacity="0"
   inkscape:pagecheckerboard="1"
   inkscape:deskcolor="#505050"
   inkscape:zoom="0.87183611"
   inkscape:cx="726.05389"
   inkscape:cy="228.82741"
   inkscape:window-width="1920"
   inkscape:window-height="991"
   inkscape:window-x="2391"
   inkscape:window-y="-9"
   inkscape:window-maximized="1"
   inkscape:current-layer="Text" />
<g
   id="Text"
   transform="matrix(1.1093552,0,0,1.1093552,144.84787,-97.342799)"
   inkscape:label="Text Pfade"
   inkscape:groupmode="layer">
	<path
   id="Brückner"
   inkscape:label="DE_Brueckner"
   fill="#153d60"
   d="m 422.383,190.75091 c 0,6.49541 -1,12.29921 -3.001,17.40881 -1.954,5.11091 -4.659,9.35086 -8.113,12.71855 -4.001,3.96899 -8.409,6.79605 -13.228,8.47861 -4.773,1.68256 -10.841,2.52642 -18.205,2.52642 h -44.32 V 97.575325 h 39.41 c 8.183,0 14.16,0.359995 17.933,1.082567 3.819,0.721282 7.591,2.314808 11.319,4.780578 3.864,2.58449 6.727,6.07347 8.591,10.4631 1.908,4.32768 2.863,9.2902 2.863,14.88239 0,6.49411 -1.295,12.23597 -3.887,17.22817 -2.59,4.93155 -6.25,8.78053 -10.977,11.54566 v 0.72128 c 6.637,1.74449 11.887,5.35219 15.751,10.82309 3.909,5.47348 5.864,12.68887 5.864,21.64875 z m -33.546,-55.20188 c 0,-2.22577 -0.432,-4.45026 -1.296,-6.67604 -0.818,-2.22449 -2.296,-3.87866 -4.432,-4.96123 -1.909,-0.96257 -4.296,-1.47353 -7.159,-1.53417 -2.819,-0.12 -6.796,-0.18065 -11.933,-0.18065 h -2.455 v 28.41255 h 4.092 c 4.137,0 7.659,-0.0903 10.568,-0.27097 2.909,-0.17935 5.205,-0.78192 6.887,-1.80385 2.364,-1.3832 3.909,-3.15608 4.636,-5.32122 0.728,-2.2232 1.092,-4.77929 1.092,-7.66442 z m 6.409,54.66125 c 0,-4.26963 -0.636,-7.547 -1.909,-9.83214 -1.227,-2.34578 -3.34,-4.08898 -6.341,-5.23219 -2.045,-0.78063 -4.864,-1.20256 -8.454,-1.26192 -3.591,-0.0607 -7.341,-0.0903 -11.25,-0.0903 h -5.728 v 33.4641 h 1.909 c 7.364,0 12.637,-0.031 15.819,-0.0903 3.182,-0.0607 6.114,-0.84129 8.796,-2.3445 2.728,-1.50449 4.591,-3.48769 5.591,-5.95475 1.044,-2.52513 1.567,-5.41155 1.567,-8.65796 z m 103.571,-51.50387 c 0,-3.36769 -0.523,-6.25411 -1.569,-8.65924 -1.045,-2.40514 -2.841,-4.2993 -5.387,-5.68381 -1.772,-0.96127 -3.841,-1.53288 -6.204,-1.71223 -2.364,-0.24129 -5.114,-0.35999 -8.25,-0.35999 h -9.478 V 158.461 h 8.046 c 4.182,0 7.681,-0.27097 10.5,-0.8116 2.818,-0.54064 5.182,-1.77417 7.091,-3.69672 1.818,-1.8645 3.137,-3.90964 3.955,-6.13542 0.864,-2.28642 1.296,-5.3238 1.296,-9.11085 z m 40.842,93.17689 H 507.68 L 479.997,182.6336 H 467.93 v 49.2497 H 441.884 V 97.575325 h 43.911 c 6,0 11.16,0.450317 15.478,1.352241 4.318,0.901923 8.364,2.856734 12.136,5.863154 3.819,3.00641 6.842,6.91475 9.069,11.7263 2.272,4.74962 3.409,10.73405 3.409,17.94944 0,9.92246 -1.75,18.0101 -5.25,24.26422 -3.455,6.25411 -8.409,11.45534 -14.864,15.60496 z m 100.367,-48.61875 c 0,16.59593 -3.819,29.31448 -11.455,38.15437 -7.637,8.84117 -18.887,13.26047 -33.751,13.26047 -14.864,0 -26.114,-4.4193 -33.752,-13.26047 -7.591,-8.83861 -11.386,-21.52618 -11.386,-38.06404 V 97.575325 h 26.319 v 83.796355 c 0,9.31989 1.476,16.26689 4.431,20.83586 2.954,4.56898 7.75,6.85541 14.387,6.85541 6.545,0 11.319,-2.19482 14.319,-6.58444 3.046,-4.38962 4.568,-11.42438 4.568,-21.10683 l 1.7e-4,-83.796355 H 640.025 v 85.689225 z m -35.04722,-61.06571 h -20.25 V 97.574641 h 20.25 z m 0,49.24624 h -20.25 v -24.6242 h 20.25 z M 710.391,234.50003 c -7.546,0 -14.524,-1.4761 -20.933,-4.42187 -6.364,-2.94706 -11.841,-7.33798 -16.432,-13.16887 -4.591,-5.83347 -8.159,-13.10951 -10.704,-21.82811 -2.5,-8.71989 -3.75,-18.79202 -3.75,-30.21768 0,-10.64374 1.205,-20.29523 3.614,-28.95447 2.409,-8.65925 5.909,-16.08496 10.5,-22.27972 4.409,-5.95347 9.864,-10.55342 16.365,-13.799821 6.545,-3.247699 13.682,-4.870905 21.409,-4.870905 4.273,0 8.115,0.330318 11.523,0.992245 3.455,0.601283 6.637,1.414176 9.546,2.434808 3.046,1.143212 5.796,2.434803 8.25,3.878653 2.5,1.38321 4.681,2.6761 6.546,3.87866 v 32.56218 h -3 c -1.273,-1.44386 -2.886,-3.15738 -4.842,-5.14188 -1.909,-1.98449 -4.091,-3.93802 -6.545,-5.86315 -2.5,-1.92514 -5.205,-3.54834 -8.115,-4.8709 -2.908,-1.32386 -6.022,-1.9845 -9.341,-1.9845 -3.682,0 -7.182,0.78193 -10.5,2.34578 -3.319,1.50321 -6.387,4.02834 -9.204,7.57668 -2.682,3.42834 -4.864,7.96764 -6.546,13.62047 -1.636,5.65284 -2.455,12.50694 -2.455,20.56619 0,8.41796 0.886,15.454 2.659,21.10683 1.819,5.65155 4.092,10.10181 6.819,13.34822 2.772,3.30705 5.864,5.68251 9.273,7.12636 3.408,1.38321 6.772,2.07353 10.091,2.07353 3.182,0 6.318,-0.63097 9.409,-1.89289 3.137,-1.26321 6.023,-2.97674 8.659,-5.14058 2.228,-1.74449 4.296,-3.60898 6.206,-5.59347 1.908,-1.98449 3.476,-3.69802 4.704,-5.14058 h 2.727 v 32.11056 c -2.546,1.50449 -4.977,2.91738 -7.296,4.23865 -2.319,1.32386 -4.75,2.46448 -7.295,3.42835 -3.319,1.26321 -6.432,2.22448 -9.342,2.8877 -2.909,0.65935 -6.909,0.99353 -12,0.99353 z m 149.936,-2.61673 h -32.114 l -30.342,-53.75932 -6.136,9.83213 V 231.8833 H 765.552 V 97.575325 h 26.183 v 60.794065 l 36.274,-60.794065 h 30.341 l -39.683,62.147595 z m 105.208,0 h -25.229 l -43.092,-92.18464 v 92.18464 h -24 V 97.575325 h 31.296 l 37.024,76.940955 V 97.575325 h 24.001 z m 99.343,0 H 991.444 V 97.575325 h 73.434 v 25.976435 h -47.387 v 23.18164 h 43.978 v 25.97775 h -43.978 v 33.19312 h 47.387 z m 78.889,-93.17689 c 0,-3.36769 -0.523,-6.25411 -1.569,-8.65924 -1.046,-2.40514 -2.841,-4.2993 -5.386,-5.68381 -1.773,-0.96127 -3.841,-1.53288 -6.204,-1.71223 -2.364,-0.24129 -5.114,-0.35999 -8.251,-0.35999 h -9.477 V 158.461 h 8.047 c 4.181,0 7.681,-0.27097 10.499,-0.8116 2.819,-0.54064 5.182,-1.77417 7.092,-3.69672 1.819,-1.8645 3.136,-3.90964 3.954,-6.13542 0.863,-2.28642 1.295,-5.3238 1.295,-9.11085 z m 40.842,93.17689 h -31.979 l -27.683,-49.2497 h -12.069 v 49.2497 h -26.046 V 97.575325 h 43.911 c 6,0 11.159,0.450317 15.477,1.352241 4.319,0.901923 8.364,2.856734 12.138,5.863154 3.818,3.00641 6.841,6.91475 9.068,11.7263 2.272,4.74962 3.408,10.73405 3.408,17.94944 0,9.92246 -1.749,18.0101 -5.249,24.26422 -3.455,6.25411 -8.41,11.45534 -14.864,15.60496 z"
   sodipodi:nodetypes="scccsccscccsccccsscccsccscccsscccsccscccsscccsccscccscccccccssccsccccsscsccscscsccccccccccccccscccssccscccccccccscccscccscccccccccsccccccccccccccccccccccccccccccccccccccssccsccssccccccccccssccscc"
   style="display:none;stroke-width:1.13591" />
	<path
   id="Bruckner"
   inkscape:label="INT_Bruckner"
   display="inline"
   fill="#153d60"
   d="m 422.383,190.75091 c 0,6.4954 -1,12.2992 -3.001,17.40881 -1.954,5.11091 -4.659,9.35085 -8.113,12.71855 -4.001,3.96898 -8.409,6.79605 -13.228,8.4786 -4.773,1.68256 -10.841,2.52642 -18.205,2.52642 h -44.32 V 97.575325 h 39.41 c 8.183,0 14.16,0.359995 17.933,1.082567 3.819,0.721281 7.591,2.314808 11.319,4.780578 3.864,2.58448 6.727,6.07347 8.591,10.46309 1.908,4.32769 2.863,9.29021 2.863,14.8824 0,6.49411 -1.295,12.23597 -3.887,17.22816 -2.59,4.93156 -6.25,8.78054 -10.977,11.54566 v 0.72129 c 6.637,1.74449 11.887,5.35219 15.751,10.82308 3.909,5.47348 5.864,12.68888 5.864,21.64876 z m -33.546,-55.20188 c 0,-2.22578 -0.432,-4.45026 -1.296,-6.67604 -0.818,-2.22449 -2.296,-3.87866 -4.432,-4.96123 -1.909,-0.96257 -4.296,-1.47353 -7.159,-1.53417 -2.819,-0.12 -6.796,-0.18065 -11.933,-0.18065 h -2.455 v 28.41255 h 4.092 c 4.137,0 7.659,-0.0903 10.568,-0.27097 2.909,-0.17935 5.205,-0.78192 6.887,-1.80385 2.364,-1.3832 3.909,-3.15609 4.636,-5.32122 0.728,-2.2232 1.092,-4.77929 1.092,-7.66442 z m 6.409,54.66124 c 0,-4.26962 -0.636,-7.547 -1.909,-9.83213 -1.227,-2.34578 -3.34,-4.08898 -6.341,-5.23219 -2.045,-0.78064 -4.864,-1.20257 -8.454,-1.26192 -3.591,-0.0606 -7.341,-0.0903 -11.25,-0.0903 h -5.728 v 33.46409 h 1.909 c 7.364,0 12.637,-0.031 15.819,-0.0903 3.182,-0.0607 6.114,-0.84128 8.796,-2.34449 2.728,-1.5045 4.591,-3.4877 5.591,-5.95476 1.044,-2.52513 1.567,-5.41155 1.567,-8.65796 z m 103.571,-51.50386 c 0,-3.3677 -0.523,-6.25411 -1.569,-8.65924 -1.045,-2.40513 -2.841,-4.2993 -5.387,-5.6838 -1.772,-0.96128 -3.841,-1.53289 -6.204,-1.71224 -2.364,-0.24129 -5.114,-0.35999 -8.25,-0.35999 h -9.478 V 158.461 h 8.046 c 4.182,0 7.681,-0.27096 10.5,-0.8116 2.818,-0.54064 5.182,-1.77417 7.091,-3.69673 1.818,-1.86449 3.137,-3.90963 3.955,-6.13541 0.864,-2.28642 1.296,-5.3238 1.296,-9.11085 z m 40.842,93.17688 H 507.68 L 479.997,182.6336 H 467.93 v 49.24969 H 441.884 V 97.575325 h 43.911 c 6,0 11.16,0.450317 15.478,1.352241 4.318,0.901924 8.364,2.856734 12.136,5.863144 3.819,3.00642 6.842,6.91475 9.069,11.72631 2.272,4.74961 3.409,10.73405 3.409,17.94944 0,9.92246 -1.75,18.0101 -5.25,24.26421 -3.455,6.25412 -8.409,11.45534 -14.864,15.60497 z m 100.367,-48.61873 c 0,16.59591 -3.819,29.31446 -11.455,38.15435 -7.637,8.84118 -18.887,13.26048 -33.751,13.26048 -14.864,0 -26.114,-4.4193 -33.752,-13.26048 -7.591,-8.8386 -11.386,-21.52618 -11.386,-38.06403 V 97.575325 h 26.319 v 83.796355 c 0,9.31988 1.476,16.26689 4.431,20.83586 2.954,4.56898 7.75,6.8554 14.387,6.8554 6.545,0 11.319,-2.19481 14.319,-6.58443 3.046,-4.38963 4.568,-11.42438 4.568,-21.10683 V 97.575325 h 26.319 v 85.689235 z m 70.365,51.23548 c -7.546,0 -14.524,-1.47612 -20.933,-4.42188 -6.364,-2.94706 -11.841,-7.33798 -16.432,-13.16887 -4.591,-5.83347 -8.159,-13.10951 -10.704,-21.82811 -2.5,-8.71989 -3.75,-18.79202 -3.75,-30.21768 0,-10.64374 1.205,-20.29523 3.614,-28.95447 2.409,-8.65925 5.909,-16.08496 10.5,-22.27972 4.409,-5.95347 9.864,-10.55341 16.365,-13.79982 6.545,-3.247701 13.682,-4.870906 21.409,-4.870906 4.273,0 8.115,0.330318 11.523,0.992245 3.455,0.601283 6.637,1.414176 9.546,2.434808 3.046,1.143212 5.796,2.434813 8.25,3.878653 2.5,1.38321 4.681,2.6761 6.546,3.87866 v 32.56217 h -3 c -1.273,-1.44385 -2.886,-3.15738 -4.842,-5.14187 -1.909,-1.98449 -4.091,-3.93801 -6.545,-5.86315 -2.5,-1.92514 -5.205,-3.54834 -8.115,-4.87091 -2.908,-1.32385 -6.022,-1.98449 -9.341,-1.98449 -3.682,0 -7.182,0.78193 -10.5,2.34578 -3.319,1.50321 -6.387,4.02833 -9.204,7.57668 -2.682,3.42834 -4.864,7.96764 -6.546,13.62047 -1.636,5.65283 -2.455,12.50694 -2.455,20.56619 0,8.41796 0.886,15.454 2.659,21.10683 1.819,5.65154 4.092,10.10181 6.819,13.34822 2.772,3.30705 5.864,5.68251 9.273,7.12636 3.408,1.38321 6.772,2.07352 10.091,2.07352 3.182,0 6.318,-0.63096 9.409,-1.89288 3.137,-1.26321 6.023,-2.97674 8.659,-5.14058 2.228,-1.74449 4.296,-3.60899 6.206,-5.59348 1.908,-1.98449 3.476,-3.69801 4.704,-5.14058 h 2.727 v 32.11056 c -2.546,1.5045 -4.977,2.91739 -7.296,4.23866 -2.319,1.32385 -4.75,2.46449 -7.295,3.42834 -3.319,1.26321 -6.432,2.22449 -9.342,2.88771 -2.909,0.65935 -6.909,0.99354 -12,0.99354 z m 149.936,-2.61675 h -32.114 l -30.342,-53.75931 -6.136,9.83213 v 43.92718 H 765.552 V 97.575325 h 26.183 v 60.794065 l 36.274,-60.794065 h 30.341 l -39.683,62.147595 z m 105.208,0 h -25.229 l -43.092,-92.18463 v 92.18463 h -24 V 97.575325 h 31.296 l 37.024,76.940955 V 97.575325 h 24.001 z m 99.343,0 H 991.444 V 97.575325 h 73.434 v 25.976435 h -47.387 v 23.18165 h 43.978 v 25.97773 h -43.978 v 33.19313 h 47.387 z m 78.889,-93.17688 c 0,-3.3677 -0.523,-6.25411 -1.569,-8.65924 -1.046,-2.40513 -2.841,-4.2993 -5.386,-5.6838 -1.773,-0.96128 -3.841,-1.53289 -6.204,-1.71224 -2.364,-0.24129 -5.114,-0.35999 -8.251,-0.35999 h -9.477 V 158.461 h 8.047 c 4.181,0 7.681,-0.27096 10.499,-0.8116 2.819,-0.54064 5.182,-1.77417 7.092,-3.69673 1.819,-1.86449 3.136,-3.90963 3.954,-6.13541 0.863,-2.28642 1.295,-5.3238 1.295,-9.11085 z m 40.842,93.17688 h -31.979 l -27.683,-49.24969 h -12.069 v 49.24969 h -26.046 V 97.575325 h 43.911 c 6,0 11.159,0.450317 15.477,1.352241 4.319,0.901924 8.364,2.856734 12.138,5.863144 3.818,3.00642 6.841,6.91475 9.068,11.72631 2.272,4.74961 3.408,10.73405 3.408,17.94944 0,9.92246 -1.749,18.0101 -5.249,24.26421 -3.455,6.25412 -8.41,11.45534 -14.864,15.60497 z"
   style="stroke-width:1.13592" />
	<path
   id="Codecraft"
   inkscape:label="Codecraft"
   fill="#1caca4"
   d="m 383.037,311.22103 c -6.92,0 -13.318,-0.65544 -19.196,-1.96533 -5.836,-1.30989 -10.858,-3.26131 -15.068,-5.85427 -4.21,-2.59396 -7.483,-5.82846 -9.817,-9.70548 -2.292,-3.87604 -3.439,-8.35389 -3.439,-13.43355 0,-4.73208 1.104,-9.02322 3.314,-12.87245 2.209,-3.85021 5.419,-7.15224 9.629,-9.90608 4.043,-2.64659 9.045,-4.69136 15.006,-6.13631 6.002,-1.44296 12.546,-2.16494 19.632,-2.16494 3.918,0 7.441,0.14797 10.567,0.44193 3.168,0.26614 6.086,0.62763 8.754,1.08247 2.793,0.50746 5.314,1.08246 7.565,1.724 2.293,0.61473 4.294,1.18972 6.003,1.725 v 14.47728 h -2.752 c -1.167,-0.64153 -2.647,-1.40423 -4.439,-2.28609 -1.751,-0.88187 -3.752,-1.75082 -6.002,-2.60687 -2.293,-0.85505 -4.773,-1.57702 -7.441,-2.16493 -2.668,-0.58791 -5.523,-0.88088 -8.566,-0.88088 -3.376,0 -6.586,0.34659 -9.629,1.04076 -3.043,0.66835 -5.857,1.79154 -8.441,3.36857 -2.46,1.52539 -4.46,3.54335 -6.002,6.05587 -1.5,2.51351 -2.251,5.56131 -2.251,9.14339 0,3.74296 0.813,6.8712 2.438,9.38372 1.668,2.51351 3.752,4.49175 6.253,5.93471 2.543,1.47176 5.377,2.52642 8.504,3.16796 3.126,0.61472 6.21,0.92358 9.253,0.92358 2.919,0 5.794,-0.28105 8.628,-0.84314 2.876,-0.56209 5.523,-1.32379 7.941,-2.2851 2.043,-0.77561 3.939,-1.60484 5.689,-2.4867 1.751,-0.88087 3.189,-1.64357 4.314,-2.2851 h 2.502 v 14.27568 c -2.335,0.66835 -4.565,1.29598 -6.69,1.88489 -2.126,0.58791 -4.357,1.09637 -6.69,1.5234 -3.043,0.5611 -5.898,0.98912 -8.567,1.28208 -2.666,0.29396 -6.334,0.44193 -11.002,0.44193 z m 141.118,-31.00034 c 0,9.51779 -4.251,17.08415 -12.755,22.69809 -8.503,5.58813 -20.258,8.38169 -35.264,8.38169 -14.964,0 -26.698,-2.79356 -35.202,-8.38169 -8.503,-5.61394 -12.755,-13.1803 -12.755,-22.69809 0,-9.59723 4.252,-17.1765 12.755,-22.73781 8.504,-5.58713 20.238,-8.3807 35.202,-8.3807 14.923,0 26.657,2.79357 35.202,8.3807 8.545,5.56131 12.817,13.14058 12.817,22.73781 z m -31.825,15.11882 c 2.335,-1.81735 4.065,-3.95647 5.19,-6.41636 1.125,-2.4867 1.688,-5.39944 1.688,-8.74119 0,-3.58208 -0.646,-6.62988 -1.938,-9.14438 -1.292,-2.51252 -2.981,-4.54439 -5.065,-6.0946 -2.126,-1.60384 -4.585,-2.76675 -7.378,-3.48873 -2.751,-0.72198 -5.627,-1.08346 -8.628,-1.08346 -3.044,0 -5.92,0.34758 -8.629,1.04274 -2.668,0.69517 -5.127,1.84417 -7.378,3.44901 -2.085,1.49659 -3.793,3.56817 -5.127,6.21575 -1.292,2.61879 -1.938,5.66758 -1.938,9.1424 0,3.55527 0.625,6.59115 1.876,9.10367 1.292,2.4867 2.98,4.51856 5.064,6.09559 2.085,1.57703 4.523,2.74093 7.315,3.48774 2.793,0.74879 5.732,1.12318 8.817,1.12318 3.084,0 6.023,-0.37439 8.816,-1.12318 2.792,-0.77461 5.231,-1.96434 7.315,-3.56818 z M 630.448,280.2624 c 0,5.56131 -1.98,10.54663 -5.939,14.95794 -3.96,4.38351 -8.962,7.75207 -15.006,10.1047 -4.543,1.76473 -9.525,2.99517 -14.943,3.69033 -5.419,0.69516 -11.838,1.04175 -19.257,1.04175 h -32.826 v -59.71159 h 33.763 c 7.586,0 14.131,0.41412 19.633,1.24335 5.503,0.80242 10.13,1.95142 13.881,3.44901 6.42,2.51351 11.462,5.9079 15.13,10.18514 3.709,4.25142 5.564,9.26256 5.564,15.03937 z m -24.823,-0.12116 c 0,-3.92966 -1.125,-7.28531 -3.376,-10.06497 -2.209,-2.80847 -5.732,-5.00022 -10.567,-6.57725 -2.459,-0.7756 -4.981,-1.29598 -7.565,-1.56511 -2.542,-0.29296 -6.398,-0.43994 -11.567,-0.43994 h -6.064 v 37.37399 h 6.064 c 5.71,0 9.9,-0.16088 12.567,-0.48065 2.668,-0.34758 5.273,-0.96231 7.816,-1.84417 4.376,-1.60484 7.586,-3.74296 9.629,-6.41636 2.043,-2.70022 3.063,-6.02906 3.063,-9.98554 z m 110.483,29.91588 h -67.34 v -59.71159 h 67.34 v 11.54965 h -43.456 v 10.3063 h 40.33 v 11.54965 h -40.33 v 14.75734 h 43.456 z m 62.211,1.16391 c -6.919,0 -13.317,-0.65544 -19.194,-1.96533 -5.836,-1.30989 -10.859,-3.26131 -15.069,-5.85427 -4.21,-2.59396 -7.483,-5.82846 -9.817,-9.70548 -2.292,-3.87505 -3.438,-8.35389 -3.438,-13.43355 0,-4.73208 1.105,-9.02322 3.313,-12.87245 2.209,-3.85021 5.419,-7.15224 9.629,-9.90608 4.044,-2.64659 9.046,-4.69136 15.006,-6.13631 6.003,-1.44296 12.547,-2.16494 19.633,-2.16494 3.918,0 7.44,0.14797 10.566,0.44193 3.168,0.26614 6.086,0.62763 8.755,1.08247 2.791,0.50746 5.314,1.08346 7.564,1.724 2.293,0.61572 4.293,1.18972 6.003,1.725 v 14.47728 h -2.751 c -1.167,-0.64153 -2.647,-1.40423 -4.44,-2.28609 -1.75,-0.88187 -3.751,-1.75082 -6.002,-2.60687 -2.292,-0.85505 -4.772,-1.57702 -7.44,-2.16493 -2.668,-0.58791 -5.523,-0.88187 -8.566,-0.88187 -3.376,0 -6.585,0.34659 -9.629,1.04076 -3.042,0.66835 -5.856,1.79253 -8.44,3.36956 -2.46,1.52439 -4.461,3.54235 -6.003,6.05487 -1.501,2.51352 -2.251,5.56132 -2.251,9.1434 0,3.74296 0.813,6.87119 2.438,9.38371 1.667,2.51352 3.752,4.49176 6.253,5.93472 2.542,1.47176 5.377,2.52741 8.503,3.16796 3.126,0.61472 6.211,0.92357 9.254,0.92357 2.918,0 5.794,-0.28104 8.629,-0.84313 2.876,-0.56209 5.523,-1.32379 7.94,-2.2851 2.042,-0.77561 3.939,-1.60484 5.69,-2.48671 1.75,-0.88186 3.188,-1.64455 4.314,-2.28609 h 2.501 v 14.27568 c -2.334,0.66835 -4.564,1.29599 -6.69,1.88489 -2.125,0.58791 -4.356,1.09637 -6.69,1.5234 -3.043,0.5611 -5.898,0.98912 -8.566,1.28308 -2.667,0.29594 -6.336,0.44292 -11.005,0.44292 z m 102.792,-42.58872 c 0,-1.49758 -0.479,-2.78065 -1.438,-3.85021 -0.96,-1.06956 -2.606,-1.91071 -4.94,-2.52643 -1.625,-0.42802 -3.521,-0.68225 -5.688,-0.7617 -2.168,-0.10626 -4.69,-0.16088 -7.566,-0.16088 h -8.691 v 16.08113 h 7.378 c 3.835,0 7.045,-0.12017 9.63,-0.36149 2.585,-0.23933 4.752,-0.78851 6.502,-1.64356 1.667,-0.82924 2.876,-1.73791 3.627,-2.72703 0.791,-1.01594 1.186,-2.36654 1.186,-4.04983 z m 37.453,41.42481 h -29.325 l -25.385,-21.89567 h -11.067 v 21.89567 h -23.885 v -59.71159 h 40.267 c 5.503,0 10.234,0.2006 14.193,0.60181 3.961,0.40022 7.67,1.27017 11.13,2.60687 3.502,1.3367 6.273,3.07361 8.316,5.21273 2.084,2.11231 3.126,4.7728 3.126,7.98048 0,4.41032 -1.605,8.0073 -4.814,10.78696 -3.168,2.77966 -7.711,5.09356 -13.631,6.93774 z m 96.539,0 H 990.28 l -6.44,-12.07003 h -34.514 l -6.44,12.07003 h -24.197 l 34.389,-59.71159 h 27.636 z m -37.078,-23.01886 -11.443,-21.41402 -11.442,21.41402 z m 117.172,-25.14308 h -42.829 v 11.10773 h 39.703 v 11.54965 h -39.703 v 25.50456 h -23.884 v -59.71159 h 66.713 z m 89.411,0 h -29.074 v 48.16194 h -24.01 v -48.16194 h -29.074 v -11.54965 h 82.159 v 11.54965 z"
   style="stroke-width:0.99654" />
</g>
<g
   id="Chain"
   transform="matrix(0.94037863,0,0,0.94037863,-33.535006,-7.1638369)"
   inkscape:label="Chain"
   inkscape:groupmode="layer">
	
		<path
   id="path3"
   inkscape:label="Left"
   sodipodi:nodetypes="sccsccsccsccssccsccsccsccsccccc"
   fill="#163c5f"
   stroke="#152147"
   stroke-width="0.25"
   stroke-linecap="round"
   stroke-opacity="0.35"
   d="m 228.93,16.28 c -35.838,0.902 -55.469,27.034 -55.469,27.034 l -40.123,50.933 c 0,0 -58.687,-5.697 -58.203,48.397 0.518,57.815 57.825,50.775 57.825,50.775 l 42.546,52.118 c 0,0 21.24,25.542 55.995,25.679 34.755,0.137 54.365,-23.425 54.365,-23.425 l 72.403,-74.032 c 0,0 13.639,-11.705 13.655,-30.187 0.015,-18.483 -10.216,-28.2 -10.216,-28.2 L 281.458,35.28 c -0.001,0 -16.69,-19.902 -52.528,-19 z m 2.48,42.972 c 13.644,-0.361 22.84,8.58 22.84,8.58 l 65.997,65.591 c 0,0 5.851,4.072 6.265,10.083 0.414,6.009 -6.475,10.97 -6.475,10.97 l -67.78,66.001 c 0,0 -8.047,7.705 -20.663,7.679 -12.617,-0.027 -21.845,-8.994 -21.845,-8.994 l -45.518,-51.417 c 0,0 7.416,-12.528 7.014,-24.048 -0.402,-11.521 -6.638,-23.927 -6.638,-23.927 l 45.095,-51.235 c 0.001,0.001 8.063,-8.923 21.708,-9.283 z m -108.549,67.471 c 9.15,-0.001 16.568,7.628 16.567,17.037 0,9.409 -7.418,17.037 -16.567,17.036 -9.149,-0.001 -16.565,-7.628 -16.565,-17.036 -0.001,-9.409 7.416,-17.036 16.565,-17.037 z" />
	
		<path
   id="path4"
   inkscape:label="Right"
   fill="#1fb0a8"
   stroke="#309a93"
   stroke-width="0.25"
   stroke-linecap="round"
   stroke-opacity="0.35"
   d="m 413.609,16.28 c -35.838,-0.902 -52.529,19 -52.529,19 l -39.588,39.51 29.743,29.866 37.052,-36.824 c 0,0 9.198,-8.941 22.842,-8.58 13.644,0.36 21.707,9.284 21.707,9.284 l 45.095,51.235 c 0,0 -6.236,12.406 -6.638,23.927 -0.401,11.52 7.014,24.048 7.014,24.048 l -45.518,51.417 c 0,0 -9.228,8.967 -21.844,8.994 -12.617,0.026 -20.665,-7.679 -20.665,-7.679 L 322.5,154.476 c 0,0 -6.889,-4.961 -6.475,-10.97 0.288,-4.191 3.221,-7.439 4.969,-9.022 l -29.751,-29.504 -10.414,10.392 c 0,0 -10.23,9.717 -10.215,28.2 0.015,18.482 13.655,30.187 13.655,30.187 l 72.403,74.032 c 0,0 19.613,23.562 54.367,23.425 34.756,-0.137 55.995,-25.679 55.995,-25.679 l 42.546,-52.118 c 0,0 57.307,7.041 57.825,-50.775 0.483,-54.093 -58.202,-48.398 -58.202,-48.398 L 469.08,43.313 C 469.078,43.314 449.447,17.182 413.609,16.28 Z m 106.069,110.443 c 9.149,0.001 16.566,7.628 16.565,17.037 0,9.408 -7.416,17.035 -16.565,17.036 -9.15,0.001 -16.567,-7.627 -16.568,-17.036 0,-9.409 7.417,-17.038 16.568,-17.037 z" />
</g>
</svg>
