<?xml version="1.0" encoding="UTF-8" standalone="no"?>
<!-- Created with Inkscape (http://www.inkscape.org/) -->

<svg
   width="1496"
   height="256"
   viewBox="0 0 395.81597 67.73333"
   version="1.1"
   id="svg1"
   xml:space="preserve"
   inkscape:version="1.4.2 (f4327f4, 2025-05-13)"
   sodipodi:docname="logo_h_de.svg"
   xmlns:inkscape="http://www.inkscape.org/namespaces/inkscape"
   xmlns:sodipodi="http://sodipodi.sourceforge.net/DTD/sodipodi-0.dtd"
   xmlns="http://www.w3.org/2000/svg"
   xmlns:svg="http://www.w3.org/2000/svg"><sodipodi:namedview
     id="namedview1"
     pagecolor="#505050"
     bordercolor="#ffffff"
     borderopacity="1"
     inkscape:showpageshadow="0"
     inkscape:pageopacity="0"
     inkscape:pagecheckerboard="1"
     inkscape:deskcolor="#505050"
     inkscape:document-units="px"
     inkscape:zoom="0.70822811"
     inkscape:cx="654.45016"
     inkscape:cy="366.40737"
     inkscape:window-width="1920"
     inkscape:window-height="991"
     inkscape:window-x="2391"
     inkscape:window-y="-9"
     inkscape:window-maximized="1"
     inkscape:current-layer="g6"
     showgrid="false" /><defs
     id="defs1" /><g
     inkscape:groupmode="layer"
     id="layer2"
     inkscape:label="Text"
     transform="matrix(1.1093552,0,0,1.1093552,144.84787,-97.342799)"
     style="display:none"><text
       xml:space="preserve"
       style="font-weight:bold;font-size:37.2412px;line-height:0.1;font-family:'Source Sans Pro';-inkscape-font-specification:'Source Sans Pro Bold';text-align:center;writing-mode:lr-tb;direction:ltr;text-anchor:middle;display:inline;fill:#153d60;fill-opacity:1;stroke-width:0.263914;stroke-linecap:round;stroke-opacity:0.345161"
       x="98.050995"
       y="127.70827"
       id="text1"
       transform="scale(1.0556576,0.94727685)"
       inkscape:label="DE_Brückner"><tspan
         sodipodi:role="line"
         id="tspan1"
         style="font-size:37.2412px;fill:#153d60;fill-opacity:1;stroke-width:0.263914"
         x="98.050995"
         y="127.70827">BRÜCKNER</tspan></text><text
       xml:space="preserve"
       style="font-weight:bold;font-size:37.2412px;line-height:0.1;font-family:'Source Sans Pro';-inkscape-font-specification:'Source Sans Pro Bold';text-align:center;writing-mode:lr-tb;direction:ltr;text-anchor:middle;display:none;fill:#153d60;fill-opacity:1;stroke-width:0.263914;stroke-linecap:round;stroke-opacity:0.345161"
       x="98.050995"
       y="127.70827"
       id="text2"
       transform="scale(1.0556576,0.94727685)"
       inkscape:label="INT_Bruckner"><tspan
         sodipodi:role="line"
         id="tspan2"
         style="font-size:37.2412px;fill:#153d60;fill-opacity:1;stroke-width:0.263914"
         x="0"
         y="0">BRUCKNER</tspan></text><text
       xml:space="preserve"
       style="font-style:normal;font-variant:normal;font-weight:600;font-stretch:normal;font-size:28.9722px;line-height:0.1;font-family:'Source Sans Pro';-inkscape-font-specification:'Source Sans Pro Semi-Bold';text-align:center;writing-mode:lr-tb;direction:ltr;text-anchor:middle;fill:#1caca4;fill-opacity:1;stroke-width:0.311085;stroke-linecap:round;stroke-opacity:0.345161"
       x="84.379967"
       y="184.53917"
       id="text3"
       transform="scale(1.2443393,0.80363933)"
       inkscape:label="Codecraft"><tspan
         sodipodi:role="line"
         id="tspan3"
         style="font-style:normal;font-variant:normal;font-weight:600;font-stretch:normal;font-size:28.9722px;font-family:'Source Sans Pro';-inkscape-font-specification:'Source Sans Pro Semi-Bold';fill:#1caca4;fill-opacity:1;stroke-width:0.311085"
         x="84.379967"
         y="184.53917">CODECRAFT</tspan></text></g><g
     inkscape:groupmode="layer"
     id="g6"
     inkscape:label="Text Pfade"
     transform="matrix(1.1093552,0,0,1.1093552,144.84787,-97.342799)"><path
       d="m 9.9213692,119.41628 q 0,1.96389 -0.8001039,3.50955 -0.7819197,1.54565 -2.1639173,2.56397 -1.6002078,1.20015 -3.5277308,1.70931 -1.9093389,0.50916 -4.855176,0.50916 H -13.245275 v -27.07625 h 10.5104553 q 3.27315233,0 4.7824392,0.21821 1.5274711,0.21821 3.0185738,0.96377 1.5456553,0.78192 2.2912066,2.10936 0.7637356,1.30926 0.7637356,3.00039 0,1.96389 -1.0364983,3.47318 -1.0364982,1.4911 -2.9276529,2.32757 v 0.14548 q 2.6548902,0.52734 4.2005455,2.1821 1.5638394,1.65476 1.5638394,4.3642 z M 0.97475293,108.28756 q 0,-0.67281 -0.34549941,-1.34563 -0.32731523,-0.67281 -1.18197166,-1.00013 -0.76373556,-0.29094 -1.90933886,-0.30913 -1.1274191,-0.0364 -3.1822314,-0.0364 h -0.6546304 v 5.72801 h 1.0910507 q 1.6547604,0 2.8185478,-0.0546 1.1637875,-0.0545 1.83660216,-0.36368 0.94557733,-0.41824 1.2365242,-1.07287 0.29094687,-0.67282 0.29094687,-1.54566 z m 1.70931287,11.01962 q 0,-1.29108 -0.509157,-1.98208 -0.4909729,-0.70918 -1.69112871,-1.05468 -0.81828808,-0.2364 -2.25483829,-0.25458 -1.4365501,-0.0182 -3.0003896,-0.0182 h -1.527471 v 6.74633 h 0.509157 q 2.945837,0 4.2187296,-0.0182 1.27289257,-0.0182 2.34575916,-0.47279 1.09105074,-0.4546 1.49110274,-1.20015 0.4182361,-0.76374 0.4182361,-1.74568 z M 30.305834,108.92401 q 0,-1.01831 -0.418237,-1.74568 -0.418236,-0.72737 -1.43655,-1.1456 -0.709183,-0.29095 -1.65476,-0.3455 -0.945577,-0.0727 -2.200286,-0.0727 H 22.0684 v 7.29186 h 2.145733 q 1.672945,0 2.800364,-0.16366 1.127419,-0.16366 1.891155,-0.74555 0.727367,-0.56371 1.054682,-1.23653 0.3455,-0.691 0.3455,-1.8366 z m 10.892323,18.78426 h -8.52838 L 25.287,117.77971 h -3.2186 v 9.92856 h -6.946356 v -27.07625 h 11.710611 q 2.400312,0 4.127809,0.27277 1.727497,0.27276 3.236784,1.18197 1.527471,0.90921 2.418496,2.36394 0.909209,1.43655 0.909209,3.61865 0,3.00039 -1.400182,4.89155 -1.381998,1.89115 -3.964151,3.14586 z m 26.767113,-9.80128 q 0,5.01884 -3.054943,7.69191 -3.054942,2.67308 -9.001168,2.67308 -5.946227,0 -9.001169,-2.67308 -3.036758,-2.67307 -3.036758,-7.67372 v -17.29316 h 7.019093 v 16.89311 q 0,2.81854 1.181972,4.20054 1.181971,1.382 3.836862,1.382 2.618521,0 3.818677,-1.32745 1.21834,-1.32744 1.21834,-4.25509 V 100.63202 H 67.96527 Z M 63.510146,97.595266 h -5.400702 v -4.964281 h 5.400702 z m -9.764905,0 H 48.34454 v -4.964281 h 5.400701 z M 86.73134,128.23561 q -3.018574,0 -5.582543,-0.89103 -2.545785,-0.89102 -4.382387,-2.65489 -1.836602,-1.76386 -2.854916,-4.40057 -1.00013,-2.6367 -1.00013,-6.0917 0,-3.2186 0.963761,-5.83712 0.963762,-2.61852 2.800364,-4.49149 1.763865,-1.80024 4.364203,-2.78218 2.618522,-0.98195 5.709832,-0.98195 1.709313,0 3.073127,0.20003 1.381997,0.18184 2.545785,0.49097 1.21834,0.3455 2.200285,0.78192 1.00013,0.41824 1.745682,0.78192 v 6.56449 h -0.800104 q -0.509157,-0.43642 -1.291077,-1.0365 -0.763736,-0.60008 -1.745681,-1.18197 -1.00013,-0.58189 -2.163918,-0.98195 -1.163787,-0.40005 -2.491232,-0.40005 -1.472919,0 -2.800364,0.47279 -1.327445,0.45461 -2.454864,1.52747 -1.072867,1.0365 -1.745681,2.74581 -0.654631,1.70932 -0.654631,4.146 0,2.54578 0.709183,4.25509 0.727367,1.70932 1.818418,2.69126 1.109235,1.00013 2.473049,1.43655 1.363813,0.41824 2.691258,0.41824 1.272893,0 2.509417,-0.38187 1.254708,-0.38187 2.309391,-1.0365 0.891025,-0.52734 1.65476,-1.12742 0.763736,-0.60007 1.254708,-1.03649 h 0.727368 v 6.47356 q -1.018314,0.45461 -1.945708,0.85466 -0.927393,0.40005 -1.945707,0.691 -1.327445,0.38187 -2.491232,0.58189 -1.163788,0.20003 -3.200416,0.20003 z m 39.98702,-0.52734 h -8.56475 l -8.09196,-10.83777 -1.63658,1.98207 v 8.8557 h -6.98272 v -27.07625 h 6.98272 v 12.25614 l 9.67399,-12.25614 h 8.09195 l -10.58319,12.5289 z m 28.05818,0 h -6.72815 l -11.4924,-18.58423 v 18.58423 h -6.40083 v -27.07625 h 8.34654 l 9.87401,15.51111 v -15.51111 h 6.40083 z m 26.49435,0 h -19.58436 v -27.07625 h 19.58436 v 5.23705 h -12.638 v 4.67333 h 11.7288 v 5.23705 h -11.7288 v 6.69177 h 12.638 z m 21.0391,-18.78426 q 0,-1.01831 -0.41824,-1.74568 -0.41823,-0.72737 -1.43655,-1.1456 -0.70918,-0.29095 -1.65476,-0.3455 -0.94557,-0.0727 -2.20028,-0.0727 h -2.5276 v 7.29186 h 2.14573 q 1.67294,0 2.80036,-0.16366 1.12742,-0.16366 1.89116,-0.74555 0.72737,-0.56371 1.05468,-1.23653 0.3455,-0.691 0.3455,-1.8366 z m 10.89232,18.78426 h -8.52838 l -7.38277,-9.92856 h -3.2186 v 9.92856 h -6.94636 v -27.07625 h 11.71061 q 2.40031,0 4.12781,0.27277 1.7275,0.27276 3.23678,1.18197 1.52748,0.90921 2.4185,2.36394 0.90921,1.43655 0.90921,3.61865 0,3.00039 -1.40018,4.89155 -1.382,1.89115 -3.96415,3.14586 z"
       id="text4"
       style="font-weight:bold;font-size:37.2412px;line-height:0.1;font-family:'Source Sans Pro';-inkscape-font-specification:'Source Sans Pro Bold';text-align:center;text-anchor:middle;fill:#153d60;stroke-width:0.263914;stroke-linecap:round;stroke-opacity:0.345161"
       inkscape:label="DE_Brückner"
       transform="scale(1.0556576,0.94727685)"
       aria-label="BRÜCKNER" /><path
       d="m 9.9213692,119.41628 q 0,1.96389 -0.8001039,3.50955 -0.7819197,1.54565 -2.1639173,2.56397 -1.6002078,1.20015 -3.5277308,1.70931 -1.9093389,0.50916 -4.855176,0.50916 H -13.245275 v -27.07625 h 10.5104553 q 3.27315233,0 4.7824392,0.21821 1.5274711,0.21821 3.0185738,0.96377 1.5456553,0.78192 2.2912066,2.10936 0.7637356,1.30926 0.7637356,3.00039 0,1.96389 -1.0364983,3.47318 -1.0364982,1.4911 -2.9276529,2.32757 v 0.14548 q 2.6548902,0.52734 4.2005455,2.1821 1.5638394,1.65476 1.5638394,4.3642 z M 0.97475293,108.28756 q 0,-0.67281 -0.34549941,-1.34563 -0.32731523,-0.67281 -1.18197166,-1.00013 -0.76373556,-0.29094 -1.90933886,-0.30913 -1.1274191,-0.0364 -3.1822314,-0.0364 h -0.6546304 v 5.72801 h 1.0910507 q 1.6547604,0 2.8185478,-0.0546 1.1637875,-0.0545 1.83660216,-0.36368 0.94557733,-0.41824 1.2365242,-1.07287 0.29094687,-0.67282 0.29094687,-1.54566 z m 1.70931287,11.01962 q 0,-1.29108 -0.509157,-1.98208 -0.4909729,-0.70918 -1.69112871,-1.05468 -0.81828808,-0.2364 -2.25483829,-0.25458 -1.4365501,-0.0182 -3.0003896,-0.0182 h -1.527471 v 6.74633 h 0.509157 q 2.945837,0 4.2187296,-0.0182 1.27289257,-0.0182 2.34575916,-0.47279 1.09105074,-0.4546 1.49110274,-1.20015 0.4182361,-0.76374 0.4182361,-1.74568 z M 30.305834,108.92401 q 0,-1.01831 -0.418237,-1.74568 -0.418236,-0.72737 -1.43655,-1.1456 -0.709183,-0.29095 -1.65476,-0.3455 -0.945577,-0.0727 -2.200286,-0.0727 H 22.0684 v 7.29186 h 2.145733 q 1.672945,0 2.800364,-0.16366 1.127419,-0.16366 1.891155,-0.74555 0.727367,-0.56371 1.054682,-1.23653 0.3455,-0.691 0.3455,-1.8366 z m 10.892323,18.78426 h -8.52838 L 25.287,117.77971 h -3.2186 v 9.92856 h -6.946356 v -27.07625 h 11.710611 q 2.400312,0 4.127809,0.27277 1.727497,0.27276 3.236784,1.18197 1.527471,0.90921 2.418496,2.36394 0.909209,1.43655 0.909209,3.61865 0,3.00039 -1.400182,4.89155 -1.381998,1.89115 -3.964151,3.14586 z m 26.767113,-9.80128 q 0,5.01884 -3.054943,7.69191 -3.054942,2.67308 -9.001168,2.67308 -5.946227,0 -9.001169,-2.67308 -3.036758,-2.67307 -3.036758,-7.67372 v -17.29316 h 7.019093 v 16.89311 q 0,2.81854 1.181972,4.20054 1.181971,1.382 3.836862,1.382 2.618521,0 3.818677,-1.32745 1.21834,-1.32744 1.21834,-4.25509 v -16.89311 h 7.019094 z m 18.76607,10.32862 q -3.018574,0 -5.582543,-0.89103 -2.545785,-0.89102 -4.382387,-2.65489 -1.836602,-1.76386 -2.854916,-4.40057 -1.00013,-2.6367 -1.00013,-6.0917 0,-3.2186 0.963761,-5.83712 0.963762,-2.61852 2.800364,-4.49149 1.763865,-1.80024 4.364203,-2.78218 2.618522,-0.98195 5.709832,-0.98195 1.709313,0 3.073127,0.20003 1.381997,0.18184 2.545785,0.49097 1.21834,0.3455 2.200285,0.78192 1.00013,0.41824 1.745682,0.78192 v 6.56449 h -0.800104 q -0.509157,-0.43642 -1.291077,-1.0365 -0.763736,-0.60008 -1.745681,-1.18197 -1.00013,-0.58189 -2.163918,-0.98195 -1.163787,-0.40005 -2.491232,-0.40005 -1.472919,0 -2.800364,0.47279 -1.327445,0.45461 -2.454864,1.52747 -1.072867,1.0365 -1.745681,2.74581 -0.654631,1.70932 -0.654631,4.146 0,2.54578 0.709183,4.25509 0.727367,1.70932 1.818418,2.69126 1.109235,1.00013 2.473049,1.43655 1.363813,0.41824 2.691258,0.41824 1.272893,0 2.509417,-0.38187 1.254708,-0.38187 2.309391,-1.0365 0.891025,-0.52734 1.65476,-1.12742 0.763736,-0.60007 1.254708,-1.03649 h 0.727368 v 6.47356 q -1.018314,0.45461 -1.945708,0.85466 -0.927393,0.40005 -1.945707,0.691 -1.327445,0.38187 -2.491232,0.58189 -1.163788,0.20003 -3.200416,0.20003 z m 39.98702,-0.52734 h -8.56475 l -8.09196,-10.83777 -1.63658,1.98207 v 8.8557 h -6.98272 v -27.07625 h 6.98272 v 12.25614 l 9.67399,-12.25614 h 8.09195 l -10.58319,12.5289 z m 28.05818,0 h -6.72815 l -11.4924,-18.58423 v 18.58423 h -6.40083 v -27.07625 h 8.34654 l 9.87401,15.51111 v -15.51111 h 6.40083 z m 26.49435,0 h -19.58436 v -27.07625 h 19.58436 v 5.23705 h -12.638 v 4.67333 h 11.7288 v 5.23705 h -11.7288 v 6.69177 h 12.638 z m 21.0391,-18.78426 q 0,-1.01831 -0.41824,-1.74568 -0.41823,-0.72737 -1.43655,-1.1456 -0.70918,-0.29095 -1.65476,-0.3455 -0.94557,-0.0727 -2.20028,-0.0727 h -2.5276 v 7.29186 h 2.14573 q 1.67294,0 2.80036,-0.16366 1.12742,-0.16366 1.89116,-0.74555 0.72737,-0.56371 1.05468,-1.23653 0.3455,-0.691 0.3455,-1.8366 z m 10.89232,18.78426 h -8.52838 l -7.38277,-9.92856 h -3.2186 v 9.92856 h -6.94636 v -27.07625 h 11.71061 q 2.40031,0 4.12781,0.27277 1.7275,0.27276 3.23678,1.18197 1.52748,0.90921 2.4185,2.36394 0.90921,1.43655 0.90921,3.61865 0,3.00039 -1.40018,4.89155 -1.382,1.89115 -3.96415,3.14586 z"
       id="text5"
       style="font-weight:bold;font-size:37.2412px;line-height:0.1;font-family:'Source Sans Pro';-inkscape-font-specification:'Source Sans Pro Bold';text-align:center;text-anchor:middle;display:none;fill:#153d60;stroke-width:0.263914;stroke-linecap:round;stroke-opacity:0.345161"
       inkscape:label="INT_Bruckner"
       transform="scale(1.0556576,0.94727685)"
       aria-label="BRUCKNER" /><path
       d="m -0.48538002,184.94942 q -2.34833268,0 -4.34300078,-0.69318 -1.9805215,-0.69318 -3.4093263,-2.0654 -1.4288048,-1.37222 -2.2210129,-3.42348 -0.778063,-2.05125 -0.778063,-4.7391 0,-2.50395 0.749769,-4.54105 0.7497692,-2.03711 2.178574,-3.49421 1.3722185,-1.40051 3.3951797,-2.16443 2.0371079,-0.76391 4.44202686,-0.76391 1.32977873,0 2.39077244,0.15561 1.0751402,0.14147 1.9805215,0.38196 0.947821,0.26878 1.7117364,0.6083 0.778062,0.32537 1.3580719,0.6083 v 5.10692 H 6.3474192 q -0.3961043,-0.33952 -1.0044073,-0.80636 -0.5941565,-0.46683 -1.3580719,-0.91952 -0.7780621,-0.45269 -1.6834433,-0.76392 -0.9053813,-0.31122 -1.93808179,-0.31122 -1.14587316,0 -2.17857371,0.36781 -1.0327005,0.35366 -1.9097886,1.18831 -0.8346483,0.80636 -1.3580718,2.13613 -0.509277,1.32978 -0.509277,3.22543 0,1.98052 0.5517167,3.3103 0.5658633,1.32977 1.4146582,2.09369 0.8629415,0.77806 1.9239352,1.11758 1.06099367,0.32537 2.09369418,0.32537 0.99026072,0 1.95222832,-0.29708 0.9761142,-0.29708 1.796616,-0.80635 0.6931825,-0.41025 1.2873389,-0.87709 0.5941565,-0.46684 0.9761142,-0.80636 h 0.5658633 v 5.03619 q -0.7922086,0.35366 -1.5136843,0.66489 -0.7214757,0.31122 -1.5136843,0.53757 -1.0327005,0.29708 -1.9380818,0.45269 -0.9053812,0.15561 -2.48979842,0.15561 z M 31.443456,174.01411 q 0,5.03619 -2.885903,8.00697 -2.885903,2.95663 -7.978672,2.95663 -5.078623,0 -7.964526,-2.95663 -2.8859028,-2.97078 -2.8859028,-8.00697 0,-5.07862 2.8859028,-8.02111 2.885903,-2.95664 7.964526,-2.95664 5.064476,0 7.964526,2.95664 2.900049,2.94249 2.900049,8.02111 z m -7.20061,5.33326 q 0.792208,-0.96196 1.174166,-2.26345 0.381958,-1.31563 0.381958,-3.08395 0,-1.89565 -0.438544,-3.22543 -0.438544,-1.32977 -1.145874,-2.15028 -0.721475,-0.84879 -1.669296,-1.23075 -0.933675,-0.38196 -1.952229,-0.38196 -1.0327,0 -1.952228,0.36782 -0.905381,0.36781 -1.669297,1.2166 -0.707329,0.79221 -1.160019,2.19272 -0.438544,1.38637 -0.438544,3.22542 0,1.8815 0.424397,3.21128 0.438544,1.31563 1.145873,2.15028 0.707329,0.83465 1.65515,1.23075 0.947821,0.3961 1.994668,0.3961 1.046847,0 1.994668,-0.3961 0.947821,-0.41025 1.655151,-1.25905 z m 31.249802,-5.31911 q 0,2.94249 -1.343925,5.27667 -1.343926,2.32004 -3.39518,3.56494 -1.541978,0.93368 -3.381033,1.30149 -1.839056,0.36781 -4.357148,0.36781 h -7.426955 v -21.06426 h 7.639154 q 2.574678,0 4.442027,0.43854 1.867349,0.4244 3.140541,1.21661 2.178574,1.32978 3.423473,3.59323 1.259046,2.24931 1.259046,5.30497 z m -5.616193,-0.0424 q 0,-2.07955 -0.763916,-3.55079 -0.749768,-1.48539 -2.390772,-2.32004 -0.834648,-0.41025 -1.711736,-0.55172 -0.862942,-0.15561 -2.617118,-0.15561 h -1.372219 v 13.18461 h 1.372219 q 1.938082,0 2.843463,-0.16976 0.905381,-0.1839 1.768323,-0.65074 1.485391,-0.84879 2.178573,-2.26345 0.693183,-1.42881 0.693183,-3.5225 z m 24.997008,10.55335 h -15.23587 v -21.06426 h 15.23587 v 4.07421 h -9.831875 v 3.63568 h 9.124545 v 4.07421 h -9.124545 v 5.20594 h 9.831875 z m 14.075849,0.41025 q -2.348332,0 -4.343,-0.69318 -1.980522,-0.69318 -3.409327,-2.0654 -1.428805,-1.37222 -2.221013,-3.42348 -0.778062,-2.05125 -0.778062,-4.7391 0,-2.50395 0.749769,-4.54105 0.749769,-2.03711 2.178573,-3.49421 1.372219,-1.40051 3.39518,-2.16443 2.037108,-0.76391 4.442027,-0.76391 1.329779,0 2.390772,0.15561 1.075141,0.14147 1.980522,0.38196 0.947821,0.26878 1.711736,0.6083 0.778062,0.32537 1.358072,0.6083 v 5.10692 h -0.622449 q -0.396105,-0.33952 -1.004408,-0.80636 -0.594156,-0.46683 -1.358072,-0.91952 -0.778062,-0.45269 -1.683443,-0.76392 -0.905381,-0.31122 -1.938082,-0.31122 -1.145873,0 -2.178573,0.36781 -1.032701,0.35366 -1.909789,1.18831 -0.834648,0.80636 -1.358072,2.13613 -0.509277,1.32978 -0.509277,3.22543 0,1.98052 0.551717,3.3103 0.565863,1.32977 1.414658,2.09369 0.862942,0.77806 1.923935,1.11758 1.060994,0.32537 2.093694,0.32537 0.990261,0 1.952229,-0.29708 0.976114,-0.29708 1.796616,-0.80635 0.693182,-0.41025 1.287339,-0.87709 0.594156,-0.46684 0.976114,-0.80636 h 0.565863 v 5.03619 q -0.792208,0.35366 -1.513684,0.66489 -0.721476,0.31122 -1.513684,0.53757 -1.032701,0.29708 -1.938082,0.45269 -0.905381,0.15561 -2.489799,0.15561 z M 112.2063,169.92575 q 0,-0.79221 -0.32537,-1.35807 -0.32537,-0.56587 -1.11758,-0.89124 -0.55172,-0.22634 -1.28734,-0.26878 -0.73562,-0.0566 -1.71174,-0.0566 h -1.96637 v 5.67278 h 1.66929 q 1.30149,0 2.17858,-0.12732 0.87709,-0.12732 1.47124,-0.58001 0.56587,-0.43854 0.8205,-0.96197 0.26879,-0.53757 0.26879,-1.4288 z m 8.4738,14.61342 h -6.63475 l -5.74351,-7.72403 h -2.50394 v 7.72403 h -5.404 v -21.06426 h 9.1104 q 1.86735,0 3.21128,0.2122 1.34392,0.2122 2.51809,0.91952 1.18831,0.70733 1.88149,1.83906 0.70733,1.11758 0.70733,2.81517 0,2.33419 -1.08928,3.80543 -1.07514,1.47125 -3.08396,2.44736 z m 21.84233,0 h -5.6162 l -1.45709,-4.25812 h -7.80892 l -1.4571,4.25812 h -5.47472 l 7.78062,-21.06426 h 6.25279 z m -8.38893,-8.12014 -2.58882,-7.55427 -2.58883,7.55427 z m 26.51069,-8.86991 h -9.69041 v 3.91861 h 8.98308 v 4.07421 h -8.98308 v 8.99723 h -5.40399 v -21.06426 h 15.0944 z m 20.22961,0 h -6.57816 v 16.99005 h -5.43229 v -16.99005 h -6.57816 v -4.07421 h 18.58861 z"
       id="text6"
       style="font-weight:600;font-size:28.9722px;line-height:0.1;font-family:'Source Sans Pro';-inkscape-font-specification:'Source Sans Pro Semi-Bold';text-align:center;text-anchor:middle;fill:#1caca4;stroke-width:0.311085;stroke-linecap:round;stroke-opacity:0.345161"
       inkscape:label="Codecraft"
       transform="scale(1.2443393,0.80363933)"
       aria-label="CODECRAFT" /></g><g
     inkscape:groupmode="layer"
     id="layer3"
     inkscape:label="Chain"
     style="display:inline"
     transform="matrix(0.94129718,0,0,0.94129718,-33.721252,-7.296305)"><path
       id="path3"
       style="display:inline;fill:#163c5f;fill-opacity:1;stroke:#152147;stroke-width:0.25;stroke-linecap:round;stroke-opacity:0.35"
       inkscape:label="Left"
       d="m 78.739501,10.132837 c -9.4471,0.237744 -14.621847,7.126181 -14.621847,7.126181 L 53.541039,30.685072 c 0,0 -15.46996,-1.501589 -15.342354,12.757724 0.136387,15.240432 15.242618,13.384349 15.242618,13.384349 l 11.215336,13.738696 c 0,0 5.598899,6.732736 14.76034,6.769096 9.161441,0.03636 14.330908,-6.174817 14.330908,-6.174817 L 112.83355,51.645033 c 0,0 3.59526,-3.08542 3.59926,-7.957654 0.004,-4.872233 -2.69286,-7.433655 -2.69286,-7.433655 L 92.585684,15.141318 c 0,0 -4.399083,-5.2462238 -13.846183,-5.008481 z m 0.653707,11.327475 c 3.596658,-0.09503 6.020821,2.261877 6.020821,2.261877 L 102.8109,41.01209 c 0,0 1.5424,1.073379 1.65158,2.657719 0.10917,1.584339 -1.70687,2.891813 -1.70687,2.891813 L 84.888479,63.960043 c 0,0 -2.12095,2.031272 -5.446696,2.024166 -3.325746,-0.0071 -5.758304,-2.370915 -5.758304,-2.370915 L 61.684728,50.060116 c 0,0 1.954893,-3.302827 1.848983,-6.339664 -0.10591,-3.036836 -1.749764,-6.307109 -1.749764,-6.307109 L 73.671076,23.907708 c 0,0 2.125474,-2.352364 5.722132,-2.447396 z M 50.77945,39.245789 c 2.412044,-1.18e-4 4.367393,2.01076 4.367176,4.491199 -6.1e-5,2.480237 -1.955328,4.4908 -4.367176,4.490682 -2.411646,-1.76e-4 -4.366597,-2.010653 -4.366658,-4.490682 -2.17e-4,-2.480231 1.954816,-4.491023 4.366658,-4.491199 z"
       sodipodi:nodetypes="sccsccsccsccssccsccsccsccsccccc" /><path
       id="path4"
       style="display:inline;fill:#1fb0a8;fill-opacity:1;stroke:#309a93;stroke-width:0.25;stroke-linecap:round;stroke-opacity:0.35"
       inkscape:label="Right"
       d="m 127.42129,10.132838 c -9.44716,-0.2377434 -13.8467,5.00848 -13.8467,5.00848 l -10.43554,10.414868 7.84035,7.872904 9.76684,-9.706901 c 0,0 2.42466,-2.356907 6.02134,-2.261877 3.59667,0.09503 5.72213,2.447396 5.72213,2.447396 l 11.88713,13.505635 c 0,0 -1.64385,3.270273 -1.74976,6.307109 -0.10591,3.036837 1.84898,6.339664 1.84898,6.339664 l -11.99875,13.553178 c 0,0 -2.43255,2.363815 -5.75831,2.370915 -3.32576,0.0071 -5.44721,-2.024166 -5.44721,-2.024166 L 103.40466,46.561622 c 0,0 -1.81604,-1.307474 -1.70687,-2.891813 0.0761,-1.104653 0.84898,-1.960917 1.31,-2.37815 l -7.842418,-7.777303 -2.745053,2.739368 c 0,0 -2.696858,2.561422 -2.692858,7.433655 0.004,4.872234 3.599263,7.957654 3.599263,7.957654 L 112.41238,71.16012 c 0,0 5.16994,6.211177 14.33143,6.174817 9.1615,-0.03636 14.76034,-6.769096 14.76034,-6.769096 l 11.21533,-13.738696 c 0,0 15.1061,1.856236 15.24248,-13.384196 0.12761,-14.259313 -15.34221,-12.757877 -15.34221,-12.757877 L 142.04313,17.259018 c 0,0 -5.17469,-6.888437 -14.62184,-7.12618 z m 27.96005,29.112951 c 2.41184,1.76e-4 4.36686,2.010968 4.36665,4.491199 -6e-5,2.480029 -1.955,4.490506 -4.36665,4.490682 -2.41185,1.18e-4 -4.36712,-2.010445 -4.36718,-4.490682 -2.1e-4,-2.480439 1.95514,-4.491317 4.36718,-4.491199 z" /></g></svg>
